<?xml version="1.0" standalone="no"?>
<!DOCTYPE svg PUBLIC "-//W3C//DTD SVG 20010904//EN"
 "http://www.w3.org/TR/2001/REC-SVG-20010904/DTD/svg10.dtd">
<svg version="1.0" xmlns="http://www.w3.org/2000/svg"
 width="512.000000pt" height="512.000000pt" viewBox="0 0 512.000000 512.000000"
 preserveAspectRatio="xMidYMid meet">
<metadata>
Created by potrace 1.14, written by Peter Selinger 2001-2017
</metadata>
<g transform="translate(0.000000,512.000000) scale(0.100000,-0.100000)"
fill="#000000" stroke="none">
<path d="M0 5000 c0 -109 2 -120 18 -120 10 0 23 5 30 12 7 7 12 8 12 2 0 -5
-5 -15 -12 -22 -9 -9 -9 -12 0 -12 7 0 15 7 19 16 4 11 13 14 30 9 16 -4 22
-2 18 4 -3 6 7 24 24 40 27 26 30 27 34 10 3 -12 0 -19 -10 -19 -8 0 -11 -5
-8 -11 4 -6 13 -8 21 -5 8 3 14 -1 14 -11 0 -13 3 -13 16 -2 14 11 14 13 0 21
-18 10 -21 34 -6 43 11 7 70 -25 70 -37 0 -4 3 -7 8 -6 4 1 17 -1 28 -5 19 -7
23 -18 29 -87 4 -44 4 -136 0 -205 -7 -112 -6 -125 9 -125 14 0 16 14 16 100
0 75 3 99 13 98 9 -2 13 21 15 86 l3 89 29 -28 c28 -27 29 -29 13 -55 -9 -15
-13 -35 -10 -44 9 -22 69 -46 85 -33 13 11 25 3 84 -51 20 -19 35 -40 32 -46
-5 -14 6 -30 31 -44 18 -10 16 -11 -15 -11 -19 0 -53 7 -75 15 -76 29 -79 29
-73 6 6 -21 3 -22 -47 -22 -30 0 -57 -5 -60 -10 -4 -6 14 -20 39 -31 25 -11
46 -26 46 -34 0 -8 14 -18 32 -23 l32 -8 -45 -22 c-69 -34 -106 -38 -131 -16
-21 19 -21 19 -16 -1 3 -11 9 -28 13 -37 6 -15 2 -18 -21 -18 -15 0 -35 7 -45
16 -17 15 -16 17 9 39 23 20 25 27 17 51 -6 16 -22 35 -37 43 -24 14 -30 14
-63 -2 -48 -23 -61 -53 -42 -100 18 -43 53 -67 107 -74 35 -5 47 -14 94 -72
70 -87 115 -158 172 -271 51 -103 54 -141 9 -133 -13 3 -27 13 -30 23 -3 10
-16 25 -30 34 -13 8 -41 40 -62 71 -21 30 -41 55 -45 55 -16 0 -7 -27 21 -72
26 -41 28 -48 15 -59 -10 -8 -14 -26 -12 -48 2 -29 8 -37 26 -39 13 -2 32 4
41 12 16 15 31 13 31 -5 0 -3 -17 -23 -37 -43 -28 -27 -40 -33 -50 -25 -16 14
-43 4 -43 -16 0 -20 -2 -20 -57 15 -26 17 -59 30 -74 30 -29 0 -79 -34 -67
-46 5 -4 16 0 26 9 27 24 60 21 117 -13 65 -38 84 -38 125 5 19 19 40 35 47
35 18 0 16 -29 -2 -36 -8 -4 -12 -10 -9 -15 3 -5 1 -9 -4 -9 -11 0 -3 -50 10
-67 6 -8 -4 -13 -34 -18 -24 -4 -61 -16 -83 -27 -40 -21 -155 -129 -155 -146
0 -6 27 16 59 49 33 33 83 70 113 84 85 40 179 28 183 -23 2 -32 -19 -45 -65
-39 -31 4 -40 2 -40 -10 0 -8 -5 -11 -12 -7 -7 4 -8 3 -4 -4 4 -6 13 -9 20 -6
9 3 15 -5 18 -25 2 -17 0 -32 -6 -34 -6 -3 -7 -8 -3 -13 11 -12 26 16 19 35
-5 13 -3 13 12 -1 15 -16 16 -22 5 -52 -9 -25 -17 -32 -28 -28 -13 5 -14 3 -3
-10 7 -9 10 -27 5 -48 -4 -22 -3 -31 4 -27 6 4 14 23 17 42 8 41 39 63 60 43
7 -7 11 -19 8 -26 -3 -11 -1 -11 17 0 12 7 21 16 21 20 0 5 8 8 18 8 14 0 15
-2 2 -10 -9 -6 -11 -10 -3 -10 7 0 10 -7 7 -15 -4 -8 -1 -15 5 -15 6 0 11 5
11 11 0 7 7 8 18 4 9 -3 21 -7 27 -8 9 -2 65 -111 79 -153 4 -15 -3 -29 -27
-52 -31 -30 -34 -31 -33 -11 1 32 -19 34 -39 3 -16 -25 -16 -28 -2 -39 14 -10
0 -27 -93 -120 -98 -97 -108 -111 -95 -124 14 -14 32 1 163 132 81 81 150 147
154 147 10 0 28 -60 28 -96 0 -32 21 -64 43 -64 22 0 -76 -88 -104 -94 -20 -4
-29 -11 -29 -25 0 -35 -57 -87 -143 -131 -168 -87 -292 -188 -285 -233 4 -32
72 -33 191 -3 54 14 104 23 112 19 8 -3 15 0 15 5 0 6 62 31 137 55 76 25 147
49 158 53 18 6 18 5 -4 -19 -13 -15 -37 -27 -54 -29 -22 -2 -33 -9 -37 -25 -3
-12 -18 -32 -35 -45 -53 -40 -125 -122 -126 -143 0 -11 -3 -14 -6 -7 -2 6 -11
12 -19 12 -9 0 -13 -4 -10 -8 3 -5 -8 -19 -24 -31 -17 -12 -30 -29 -30 -37 0
-19 24 -44 41 -44 7 0 10 -3 7 -6 -4 -3 -2 -19 3 -36 5 -20 5 -36 -1 -43 -5
-7 -7 -15 -3 -18 3 -4 1 -7 -5 -7 -7 0 -12 9 -12 20 0 10 -6 23 -14 27 -7 4
-18 18 -25 31 -14 27 -31 21 -24 -9 5 -16 2 -20 -8 -17 -8 3 -13 11 -11 17 1
6 -2 11 -7 11 -5 0 -16 3 -25 6 -9 3 -16 1 -16 -5 0 -6 5 -11 11 -11 6 0 24
-14 40 -31 16 -17 33 -28 39 -24 6 3 8 11 5 16 -4 5 -1 9 4 9 6 0 11 -6 11
-13 0 -7 11 -24 25 -39 32 -35 33 -58 3 -51 -22 4 -22 4 -4 -11 14 -11 23 -13
32 -5 10 8 10 6 1 -15 -6 -13 -14 -21 -17 -18 -12 16 -40 34 -40 26 0 -16 64
-77 68 -66 6 19 22 14 22 -6 0 -15 -6 -18 -30 -14 -33 5 -41 -11 -13 -27 27
-15 11 -22 -25 -12 -36 11 -36 11 -20 -44 6 -22 11 -43 10 -47 -1 -3 6 -5 14
-4 23 3 39 35 25 49 -8 8 -11 6 -11 -6 0 -9 -4 -17 -10 -17 -16 0 -12 22 7 36
24 18 48 17 63 0 6 -8 19 -12 27 -9 13 5 15 2 10 -11 -4 -9 -3 -15 2 -11 5 3
12 1 16 -5 3 -5 -1 -10 -9 -10 -9 0 -16 -7 -16 -16 0 -8 4 -12 10 -9 16 10 12
-23 -6 -50 -16 -24 -42 -37 -28 -13 8 12 13 78 6 78 -2 0 -8 -15 -15 -32 l-12
-33 -5 40 c-5 38 -6 39 -18 18 -9 -17 -9 -28 -1 -47 9 -19 9 -29 0 -39 -9 -11
-8 -17 4 -27 13 -10 15 -9 16 11 1 24 1 24 13 -3 11 -25 13 -26 24 -10 11 14
12 12 8 -18 -5 -33 -5 -34 10 -15 15 19 16 17 11 -32 -3 -29 -2 -55 3 -58 12
-7 2 -33 -22 -57 -10 -10 -18 -26 -18 -36 0 -24 -19 -42 -36 -35 -17 6 -18 29
-1 37 6 4 2 4 -10 2 -16 -3 -23 1 -23 12 -1 15 -3 14 -15 -2 -8 -11 -15 -27
-14 -35 0 -12 3 -10 9 4 8 19 9 19 9 -2 1 -14 7 -23 16 -23 24 0 17 -20 -11
-30 -30 -12 -35 -12 -31 -3 3 12 -10 14 -40 7 -25 -7 -25 -8 -8 -20 14 -10 15
-14 4 -14 -8 0 -25 -16 -38 -35 -25 -37 -25 -77 1 -135 17 -40 72 -57 136 -42
37 8 54 7 81 -4 43 -18 64 -18 31 1 l-25 14 33 7 c17 3 32 12 32 19 0 7 6 18
13 24 11 8 19 5 35 -14 12 -14 30 -25 40 -25 20 0 62 50 62 74 0 9 9 20 19 26
26 13 29 13 33 -6 2 -13 7 -12 26 6 31 29 29 51 -5 48 -18 -2 -27 1 -26 10 2
6 -2 12 -9 12 -19 0 1 14 22 15 11 1 20 -3 20 -8 0 -5 6 -7 13 -4 7 3 19 -4
25 -14 14 -23 47 -26 39 -4 -4 8 -2 17 3 20 6 4 10 17 10 31 0 17 -6 24 -19
24 -11 0 -21 6 -24 13 -3 9 -7 9 -18 0 -12 -10 -15 -8 -14 14 0 33 20 40 45
18 20 -18 56 -13 45 5 -4 6 -9 8 -13 6 -14 -8 -27 20 -29 59 -1 34 -1 36 5 11
11 -45 32 -45 33 1 1 21 3 30 6 19 4 -14 11 -17 34 -12 26 5 29 3 29 -20 0
-17 7 -28 20 -31 26 -7 26 -23 0 -23 -10 0 -24 -9 -30 -20 -6 -11 -15 -18 -20
-15 -17 10 -22 -16 -6 -28 15 -11 14 -15 -14 -42 -36 -35 -38 -44 -6 -38 13 3
27 0 30 -6 4 -6 19 -11 34 -12 27 0 27 0 4 -10 -13 -5 -33 -7 -45 -4 -15 4
-31 -3 -49 -20 -28 -26 -62 -33 -73 -14 -5 7 -14 4 -27 -7 -16 -16 -21 -16
-29 -4 -8 13 -10 13 -19 0 -7 -11 -5 -19 7 -28 13 -9 14 -15 5 -24 -7 -7 -12
-20 -12 -31 0 -15 -7 -18 -42 -15 -38 3 -43 0 -46 -20 -4 -29 26 -42 43 -19
16 23 48 21 70 -3 10 -11 26 -20 36 -20 10 0 20 -8 24 -19 3 -10 14 -29 25
-41 l20 -23 11 29 c6 16 13 23 16 17 7 -18 33 -16 33 2 0 8 -6 15 -14 15 -19
0 -25 29 -12 58 12 28 22 28 41 -2 21 -31 41 -39 68 -24 20 10 21 10 9 -5 -12
-15 -10 -16 23 -13 50 4 66 -28 63 -126 l-1 -73 -6 83 c-6 82 -15 101 -49 102
-50 0 -73 -68 -31 -90 18 -10 20 -19 17 -76 -3 -68 -14 -84 -25 -34 -4 25 -8
28 -20 19 -11 -10 -12 -9 -7 5 3 9 1 16 -5 16 -6 0 -11 -6 -11 -12 -1 -14 -34
-58 -44 -58 -3 0 -6 7 -6 15 0 8 -7 15 -15 15 -22 0 -18 -38 5 -50 11 -6 20
-8 20 -4 0 4 9 -1 20 -11 13 -11 27 -15 44 -11 19 5 26 2 31 -15 5 -15 2 -25
-9 -31 -23 -13 -20 -45 5 -58 11 -7 23 -9 27 -6 3 4 16 50 29 104 16 67 21 81
17 44 -3 -29 -12 -76 -20 -105 -14 -50 -13 -52 9 -67 12 -8 38 -31 57 -50 20
-19 24 -26 10 -14 -59 49 -90 66 -94 52 -3 -7 -12 -38 -21 -68 -23 -73 -94
-211 -160 -309 -50 -75 -82 -153 -56 -137 17 11 13 -30 -4 -48 -8 -8 -15 -18
-15 -22 0 -4 -11 -22 -26 -41 l-25 -33 464 0 464 0 44 24 c71 38 153 50 219
33 30 -8 63 -18 72 -22 12 -5 20 -2 24 9 10 26 20 18 18 -14 -2 -28 0 -30 34
-29 34 0 44 9 122 100 47 54 88 99 92 99 11 0 -2 -32 -22 -55 -30 -34 -44 -69
-45 -108 -1 -36 0 -37 35 -37 26 1 46 10 75 36 37 33 39 37 23 48 -10 7 -18
16 -18 20 0 20 73 171 105 217 53 77 42 82 -21 11 -31 -35 -59 -61 -61 -58 -3
3 49 78 116 167 79 106 118 166 112 172 -11 11 -61 -17 -61 -34 0 -7 6 -6 17
2 15 12 15 10 -1 -16 -30 -47 -141 -188 -204 -257 -31 -35 -97 -112 -147 -171
-49 -58 -91 -104 -93 -102 -2 2 6 32 18 67 13 35 25 95 27 134 l5 70 -41 16
c-29 12 -41 13 -41 5 0 -7 -9 3 -20 21 -11 18 -20 39 -20 46 0 24 87 96 117
97 23 0 24 2 9 8 -16 6 -10 15 41 62 33 30 84 81 114 114 l53 60 -75 -71
c-165 -157 -188 -174 -230 -174 -29 0 -39 4 -39 16 0 30 31 81 55 92 14 7 25
16 25 22 0 6 10 8 23 5 12 -4 34 -2 49 4 22 8 27 19 37 73 11 65 17 320 7 336
-2 4 -6 48 -7 97 -1 48 -5 100 -10 114 -27 91 -41 188 -41 296 -1 132 8 201
52 380 54 226 49 331 -24 427 -48 63 -56 82 -56 133 0 25 -7 78 -16 116 -9 39
-13 73 -10 76 3 4 33 -1 66 -10 175 -49 547 -83 635 -58 43 11 169 -2 193 -21
8 -7 12 -7 12 -1 0 7 16 7 45 2 50 -9 245 -64 288 -81 15 -6 30 -8 33 -5 14
13 -288 95 -467 126 -135 24 -269 61 -346 96 -29 14 -57 25 -61 25 -15 0 -150
85 -197 125 -114 95 -215 206 -215 237 0 11 -5 15 -14 12 -13 -5 -25 13 -32
45 -2 11 28 -12 76 -59 33 -32 134 -111 165 -130 49 -29 45 -23 -21 27 -28 21
-66 56 -85 78 -19 22 -26 34 -16 26 21 -17 23 2 2 19 -9 7 -25 26 -36 41 l-20
29 68 -29 c37 -16 88 -32 113 -36 25 -4 53 -14 62 -22 9 -8 33 -14 55 -13 53
3 60 1 43 -10 -12 -8 -11 -10 8 -10 12 0 22 3 22 8 0 4 -45 33 -100 66 -100
59 -185 124 -145 111 55 -18 196 -45 238 -45 54 0 115 -23 292 -112 159 -79
135 -58 -35 31 -74 39 -128 71 -119 71 54 0 377 -71 455 -100 32 -13 124 -104
124 -125 0 -8 -8 -16 -17 -16 -10 -1 0 -5 22 -10 22 -5 115 -11 208 -13 196
-5 232 -15 253 -65 11 -26 11 -36 3 -42 -8 -4 -5 -9 8 -13 11 -4 28 -15 38
-26 10 -11 28 -20 41 -20 16 0 30 -12 48 -42 14 -24 22 -46 18 -50 -6 -6 -171
-21 -215 -20 -10 1 -20 -5 -23 -12 -4 -10 -42 -12 -167 -11 l-162 2 70 -22
c39 -13 72 -19 73 -14 2 5 48 9 103 9 122 0 156 -14 249 -105 57 -56 91 -78
284 -175 237 -120 363 -196 489 -293 141 -108 158 -118 196 -111 24 5 32 3 27
-5 -4 -6 -2 -11 3 -11 6 0 11 -5 11 -10 0 -7 -7 -7 -22 0 -21 10 -21 9 2 -9
31 -25 38 -26 62 -4 10 9 18 11 18 5 0 -6 -4 -14 -10 -17 -15 -9 -12 -22 7
-29 10 -4 25 2 40 15 19 19 23 32 23 87 0 57 -2 63 -17 58 -17 -6 -17 -5 0 8
20 15 24 76 5 76 -10 0 -10 2 -1 8 8 5 11 33 10 82 -2 74 -2 75 -29 75 -35 1
-48 14 -25 26 24 14 22 56 -3 69 -22 12 -60 5 -60 -11 0 -6 -4 -7 -10 -4 -16
10 -12 22 10 28 11 3 24 17 30 31 7 20 17 26 38 26 26 0 28 -3 24 -28 -2 -18
2 -33 12 -42 15 -12 16 -5 14 71 -3 81 -4 84 -30 93 -23 8 -32 6 -51 -12 -31
-29 -57 -29 -57 1 0 28 -17 47 -43 47 -16 0 -18 5 -12 30 4 19 2 36 -5 45 -8
9 -8 15 -2 15 6 0 12 -5 14 -11 7 -20 58 -13 74 10 8 11 26 21 39 21 18 0 24
-6 27 -27 2 -20 9 -29 26 -31 21 -3 22 0 22 54 0 42 -4 60 -17 69 -14 11 -15
16 -5 28 10 12 10 16 0 20 -8 4 -7 6 5 6 15 1 17 13 17 116 l0 114 -82 -30
c-46 -17 -105 -39 -133 -49 -113 -41 -260 -108 -188 -86 26 8 37 -7 24 -31 -5
-10 -12 -26 -15 -36 -4 -13 -12 -16 -30 -11 -19 4 -31 0 -49 -20 -35 -38 -62
-34 -64 8 -1 32 0 33 34 32 26 -1 38 5 47 19 6 11 16 23 21 27 19 14 -3 8
-132 -41 -72 -28 -148 -53 -170 -56 -21 -4 -51 -11 -68 -15 -16 -5 -56 -16
-87 -25 -56 -16 -58 -16 -88 5 -43 30 -100 108 -100 136 0 13 -4 24 -9 24 -11
0 -75 79 -69 85 2 2 39 11 83 20 116 24 335 99 450 154 142 68 416 258 489
340 11 11 24 21 30 21 15 0 -139 -154 -199 -200 -27 -20 -63 -51 -80 -67 -30
-30 -152 -115 -270 -188 -33 -20 -51 -34 -40 -31 11 2 85 23 165 45 150 41
358 84 468 97 l62 7 0 226 0 226 -172 38 c-95 21 -227 47 -293 58 -150 25
-298 60 -394 93 -63 22 -82 35 -130 85 -62 65 -121 91 -212 91 -69 0 -140 36
-361 183 l-198 132 0 83 c0 48 -4 82 -10 82 -5 0 -10 4 -10 9 0 12 49 20 52 9
2 -5 32 -10 68 -12 l65 -4 -69 35 c-37 19 -75 32 -83 29 -8 -3 -12 -2 -8 3 3
5 -16 19 -42 32 -27 12 -61 31 -77 42 -15 11 -51 33 -80 48 l-51 28 -16 88
c-12 62 -14 94 -6 110 7 15 6 36 -2 69 -7 25 -10 49 -7 51 5 5 42 -14 99 -52
46 -30 29 -10 -20 25 -27 18 -76 61 -110 96 l-61 64 -131 0 -130 0 43 -44 c37
-38 46 -57 66 -133 26 -99 48 -132 84 -126 28 6 34 -8 43 -87 5 -56 5 -57 -22
-64 -15 -4 -46 -21 -69 -39 -40 -31 -45 -36 -65 -67 -9 -13 -14 -12 -42 4 -24
14 -31 15 -27 5 3 -8 0 -20 -7 -26 -11 -10 -19 -8 -42 9 -15 12 -6 -1 20 -29
l49 -50 -12 -44 c-20 -71 -22 -101 -11 -168 15 -91 52 -164 116 -225 l55 -53
-16 -54 c-17 -57 -53 -129 -64 -129 -4 0 -18 8 -31 19 -13 10 -34 23 -46 30
-19 9 -22 9 -17 -3 3 -7 21 -22 40 -32 36 -19 43 -40 22 -64 -7 -8 -3 -6 10 5
28 23 21 27 181 -90 l110 -80 5 -55 c16 -150 29 -245 36 -264 7 -17 9 -18 9
-3 2 36 43 17 107 -50 35 -36 62 -68 59 -71 -2 -2 -39 5 -82 16 -114 31 -263
60 -388 76 -122 16 -203 47 -314 119 -59 38 -62 42 -40 48 35 9 -101 23 -154
16 l-42 -5 45 24 c47 27 45 26 -62 -12 -104 -37 -127 -34 -177 26 -23 27 -91
101 -151 165 -60 63 -121 137 -135 165 -23 45 -51 172 -57 264 -3 35 0 41 22
47 l25 7 -27 1 c-32 1 -49 21 -18 21 12 0 19 4 15 9 -3 6 2 14 11 19 12 7 19
27 22 66 5 58 11 66 32 41 16 -19 26 -19 34 0 8 22 -61 65 -104 65 -20 0 -45
-7 -56 -15 -25 -19 -44 -19 -44 0 0 35 96 48 153 19 l32 -16 -30 26 c-16 14
-37 25 -46 26 -15 0 -60 40 -45 40 4 0 24 -9 46 -20 52 -26 58 -25 30 5 -12
13 -27 22 -33 18 -6 -3 -7 -1 -4 4 4 6 -7 35 -23 64 -33 61 -41 60 -10 -1 11
-22 20 -44 20 -50 0 -17 -102 67 -124 101 -21 34 -34 32 -16 -1 9 -17 9 -41 0
-104 -7 -45 -11 -122 -8 -169 2 -48 1 -87 -4 -87 -4 0 -8 6 -8 13 0 8 -14 41
-30 75 -17 35 -39 104 -50 155 -11 50 -23 97 -25 102 -8 16 5 -83 22 -176 15
-83 15 -88 -5 -150 -53 -159 -63 -270 -37 -408 16 -82 70 -251 99 -306 25 -47
19 -52 -20 -14 -79 74 -157 222 -195 370 -19 70 -23 116 -25 269 -1 102 -3
190 -3 197 -1 6 -9 9 -19 7 -13 -4 -26 12 -55 71 -20 41 -37 77 -37 79 0 2 13
8 28 14 21 7 35 6 58 -6 16 -9 24 -17 17 -19 -28 -10 -4 -83 27 -83 10 0 25
51 36 117 6 38 4 42 -17 46 -22 4 -22 4 3 6 25 1 29 7 43 59 16 58 27 93 40
125 5 11 3 17 -7 17 -16 0 -38 -54 -38 -94 0 -23 -3 -26 -13 -17 -8 6 -31 18
-52 26 -37 16 -38 16 -32 -4 9 -35 -11 -13 -24 27 -7 20 -20 52 -30 69 -17 31
-17 93 0 93 14 0 51 -68 45 -84 -4 -11 -1 -16 10 -16 11 0 16 9 16 28 0 21 7
32 25 40 23 10 25 9 26 -11 0 -12 3 -16 6 -9 2 6 11 12 19 12 9 0 13 -4 10 -9
-3 -5 6 -12 21 -16 27 -6 53 13 53 40 0 6 8 20 18 31 10 10 26 39 36 64 9 24
44 84 77 133 32 48 59 90 59 93 0 2 -378 4 -840 4 l-840 0 0 -120z m537 26
c-4 -9 -1 -13 6 -10 7 2 44 -25 82 -61 l70 -64 -59 -1 c-48 0 -63 4 -88 25
-16 14 -34 25 -39 25 -15 0 -10 -26 11 -53 11 -14 20 -37 20 -51 0 -23 -3 -25
-19 -16 -11 5 -26 8 -33 5 -7 -3 -30 12 -51 33 l-38 39 36 24 c19 13 40 38 46
57 6 17 17 32 25 32 8 0 17 7 20 15 4 8 8 15 11 15 3 0 3 -7 0 -14z m343 -42
c0 -9 -11 -14 -27 -14 -16 0 -35 -4 -43 -10 -12 -8 -12 -10 4 -16 11 -4 22 -1
28 7 7 10 8 7 4 -12 -5 -22 -1 -27 27 -37 26 -9 33 -17 33 -39 -1 -21 6 -29
34 -39 l35 -12 -31 -1 c-38 -1 -47 -10 -31 -29 10 -13 9 -15 -5 -9 -9 3 -32 9
-52 12 -23 5 -48 22 -76 51 -39 42 -40 44 -16 38 16 -4 26 -2 26 5 0 6 9 11
20 11 11 0 20 2 20 5 0 3 -9 14 -20 25 -27 27 -25 47 5 54 14 4 28 13 31 21 7
17 34 8 34 -11z m-87 -211 c50 -49 65 -68 55 -75 -10 -6 -5 -16 20 -38 50 -46
12 -35 -52 15 -32 25 -69 45 -82 45 -28 0 -30 8 -7 25 21 16 8 35 -24 35 -25
0 -63 25 -63 41 0 9 25 16 60 18 18 0 44 -18 93 -66z m249 -208 c21 -27 71
-57 91 -54 24 3 35 -1 40 -14 4 -10 -2 -13 -19 -9 -26 5 -84 -15 -84 -29 0
-29 87 -50 120 -29 12 7 22 -5 52 -63 44 -85 44 -87 18 -80 -14 4 -29 -3 -46
-22 -20 -22 -27 -25 -39 -15 -9 7 -27 10 -44 7 -24 -5 -28 -3 -27 16 1 12 -13
37 -32 56 -30 31 -36 33 -79 28 -36 -4 -53 -12 -75 -38 l-29 -32 -37 20 c-25
13 -45 18 -62 13 -14 -4 -30 -3 -36 2 -8 6 -11 3 -10 -8 0 -9 -5 -19 -11 -21
-9 -3 -13 5 -13 24 0 24 -24 113 -45 164 -4 10 3 19 21 28 24 11 30 8 75 -34
46 -43 59 -52 59 -40 0 3 -19 26 -41 50 l-42 45 37 15 c35 15 169 42 215 44
14 1 31 -9 43 -24z m2094 -94 c21 -15 47 -42 57 -59 17 -30 17 -31 -3 -37 -11
-3 -30 -3 -41 0 -13 5 -19 3 -15 -3 3 -6 -25 -14 -70 -21 -82 -12 -94 -16 -94
-33 0 -7 30 -8 93 -4 50 4 106 3 122 -2 l30 -8 -35 -9 -35 -8 40 -6 c37 -6 40
-8 38 -35 -2 -32 -42 -80 -85 -102 -64 -33 -148 0 -184 73 -25 52 -31 167 -10
216 29 69 124 88 192 38z m-2456 -47 c16 -54 16 -60 1 -72 -15 -13 -15 -13 1
-8 19 6 25 -15 35 -110 7 -71 7 -116 0 -170 -3 -25 0 -52 8 -67 11 -22 11 -26
-2 -31 -8 -3 -12 -10 -9 -15 10 -15 -12 -61 -29 -61 -8 0 -15 -5 -15 -12 0 -6
-3 -8 -7 -5 -3 4 -7 35 -8 69 -2 35 -10 88 -19 118 -9 30 -16 73 -17 95 -1 22
-4 30 -6 18 -4 -19 -9 -21 -34 -16 -32 6 -69 -18 -69 -45 0 -8 -17 11 -38 44
-21 32 -60 84 -86 114 -26 30 -42 56 -36 58 7 3 18 -5 26 -17 19 -27 32 -27
36 2 2 14 29 41 73 75 68 51 165 106 173 98 2 -2 12 -30 22 -62z m284 -253
c32 -33 47 -55 43 -65 -7 -19 -38 -21 -55 -4 -9 9 -12 3 -12 -29 0 -48 -21
-73 -45 -53 -9 7 -15 29 -15 51 0 36 -2 38 -19 28 -21 -14 -51 -6 -51 13 0 15
84 108 97 108 5 0 31 -22 57 -49z m630 -33 c3 -13 6 -36 7 -53 0 -16 4 -39 9
-50 6 -14 7 -6 4 25 l-6 45 20 -24 c11 -14 32 -61 47 -105 37 -113 76 -196 88
-189 6 3 7 1 3 -6 -4 -6 -1 -23 8 -36 19 -29 22 -89 4 -83 -7 3 -21 21 -31 41
-9 20 -22 37 -28 37 -5 0 -8 4 -5 8 2 4 -4 26 -15 47 -11 22 -17 32 -14 23 3
-10 7 -26 10 -35 3 -10 -10 14 -30 52 -33 67 -64 167 -83 274 -9 50 0 72 12
29z m1425 -179 c30 -4 59 -13 64 -18 12 -12 21 -331 10 -331 -17 0 -243 170
-243 182 0 5 13 32 29 61 16 28 34 69 41 90 9 29 16 37 29 32 9 -4 40 -11 70
-16z m878 -46 c21 -9 75 -34 120 -55 45 -21 86 -38 91 -38 16 0 52 -37 52 -54
0 -9 -3 -16 -7 -16 -17 0 -114 41 -174 73 -35 19 -75 38 -88 42 -13 4 -39 16
-59 28 -31 18 -33 22 -16 28 29 12 40 10 81 -8z m-191 -54 c-9 13 109 -44 149
-73 17 -12 42 -27 58 -34 33 -14 38 -52 7 -52 -11 0 -20 -4 -20 -10 0 -11 78
-70 92 -70 5 0 47 -16 93 -37 80 -34 84 -38 78 -62 -3 -14 -9 -28 -13 -31 -3
-3 -9 -13 -13 -22 -6 -18 -35 -15 -48 4 -3 5 -17 10 -30 12 -30 4 -50 11 -124
46 -33 15 -85 38 -115 51 -30 13 -67 36 -82 51 -14 15 -32 28 -40 28 -7 0 -30
16 -51 35 -21 19 -42 35 -47 35 -5 0 -14 9 -21 21 -11 21 -10 21 49 14 37 -4
62 -3 66 3 3 6 -12 25 -35 43 l-41 32 29 12 c19 8 34 9 47 3 13 -7 16 -7 12 1z
m564 -339 c62 -19 142 -31 260 -41 246 -19 274 -22 299 -35 18 -9 21 -14 9
-14 -9 0 -19 -9 -23 -19 -8 -25 -31 -29 -182 -24 -187 5 -417 33 -436 52 -12
12 11 91 26 91 7 0 28 -5 47 -10z m-1967 -537 c83 -97 146 -158 192 -184 64
-37 49 -36 -60 0 -113 39 -147 60 -157 96 -17 63 -25 125 -16 125 5 0 23 -17
41 -37z m-1380 -179 c36 -6 37 -7 17 -21 -33 -23 -43 -59 -25 -94 9 -16 21
-30 28 -30 6 -1 18 -2 24 -3 7 0 14 -5 15 -11 4 -13 -331 -125 -354 -119 -9 3
-19 0 -23 -5 -3 -6 -25 -15 -48 -21 -23 -6 -51 -14 -62 -17 -11 -3 41 57 115
132 105 106 148 144 195 166 66 32 64 31 118 23z m-313 -119 c0 -3 -43 -49
-95 -101 -53 -52 -93 -99 -90 -103 6 -11 -47 -21 -74 -14 -11 3 -21 9 -21 14
0 20 106 109 188 158 89 53 92 54 92 46z m4236 -344 c22 -38 47 -44 78 -20 13
10 29 19 35 19 16 0 59 -71 63 -104 3 -27 -1 -31 -30 -37 -19 -4 -39 -12 -45
-18 -6 -6 -19 -11 -29 -11 -14 0 -16 6 -12 28 6 29 4 29 -74 33 -21 1 -22 2
-8 18 26 28 21 69 -9 77 -29 7 -55 -10 -55 -37 0 -21 -15 -25 -26 -8 -7 12 44
69 63 69 7 0 13 5 13 10 0 20 19 9 36 -19z m-3915 -632 c17 -12 30 -15 37 -9
9 7 9 7 2 -2 -17 -20 -11 -29 15 -22 19 5 25 2 25 -10 0 -19 -36 -40 -45 -26
-3 5 -12 10 -19 10 -17 0 -16 -32 1 -43 7 -4 9 -15 6 -24 -4 -10 -2 -14 7 -11
7 2 14 14 15 26 2 27 7 33 34 35 13 1 21 8 21 18 0 25 30 53 43 40 7 -7 6 -15
-2 -25 -7 -8 -10 -19 -7 -25 3 -5 0 -12 -6 -14 -8 -3 -6 -6 5 -6 14 -1 17 -11
17 -57 0 -40 -4 -55 -12 -52 -7 3 -14 14 -16 25 -2 17 -12 22 -43 25 -22 2
-43 0 -46 -5 -6 -11 28 -36 42 -31 5 2 15 -7 22 -21 6 -14 8 -25 5 -25 -4 0
-17 -3 -29 -6 -17 -5 -23 -2 -23 9 0 20 -30 31 -44 16 -7 -7 -7 -13 -1 -15 33
-13 39 -22 26 -38 -17 -20 -31 -20 -31 -1 0 18 -8 19 -43 3 -34 -16 -29 -34 8
-30 25 3 27 1 16 -12 -11 -13 -11 -16 3 -16 9 0 16 -5 16 -10 0 -6 10 -4 23 5
13 8 26 12 30 9 9 -9 -16 -44 -31 -44 -8 0 -11 -9 -8 -26 5 -24 3 -26 -22 -21
-17 3 -31 -1 -39 -11 -11 -15 -14 -15 -23 -2 -5 8 -10 29 -10 47 0 36 -35 76
-87 99 l-31 14 19 39 c10 22 19 45 19 50 0 6 10 10 23 8 19 -2 22 3 25 36 3
36 12 43 50 38 6 -1 12 3 12 9 0 5 -8 10 -17 10 -14 0 -13 3 5 21 13 12 27 17
35 12 17 -11 47 -14 47 -5 0 11 -40 33 -50 27 -4 -3 -11 1 -13 7 -4 10 -8 9
-16 -2 -10 -13 -12 -13 -21 0 -7 11 -5 18 6 27 18 13 36 8 75 -18z m990 -1377
c49 -40 9 -132 -57 -132 -32 0 -74 42 -74 75 0 60 82 96 131 57z"/>
<path d="M3384 5023 c56 -55 101 -92 104 -85 2 6 8 12 14 12 6 0 8 -6 5 -13
-3 -7 6 -23 19 -36 20 -19 30 -22 66 -16 41 7 42 6 23 -9 -19 -15 -19 -16 8
-6 36 13 37 13 31 -3 -2 -7 10 -23 27 -36 18 -13 29 -19 25 -12 -4 6 -3 11 3
11 6 0 13 -11 17 -25 5 -20 9 -23 20 -14 11 9 14 8 14 -2 1 -11 3 -11 13 1 7
8 22 14 35 12 15 -2 22 2 22 13 0 14 3 14 27 -2 24 -16 27 -16 36 -2 8 13 18
14 50 7 40 -9 62 -3 39 11 -7 4 -15 18 -18 32 -3 13 -8 34 -11 47 -3 12 -1 22
6 22 6 0 8 -7 4 -17 -5 -12 -3 -14 7 -8 10 6 12 4 7 -8 -3 -8 1 -21 8 -27 8
-7 12 -16 9 -22 -3 -5 9 -3 28 5 34 14 62 12 52 -4 -3 -5 2 -9 10 -9 9 0 16 4
16 10 0 5 7 7 15 4 8 -4 21 -1 29 5 7 6 15 9 17 7 6 -7 72 -18 102 -19 21 0
25 -3 16 -13 -6 -8 -15 -12 -19 -9 -4 3 -10 -6 -12 -18 -4 -20 0 -23 28 -23
35 0 44 14 44 69 0 17 5 27 15 27 12 0 15 -20 14 -122 -2 -250 -1 -258 21
-258 18 0 20 7 20 54 0 49 2 54 20 49 19 -5 20 0 20 75 0 64 3 81 16 86 21 8
35 -1 28 -18 -3 -8 4 -16 16 -19 13 -3 20 -11 17 -19 -2 -7 0 -21 5 -31 6 -12
5 -16 -3 -15 -6 2 -14 -3 -17 -11 -4 -13 14 -13 73 2 77 20 76 19 64 33 -9 11
-8 14 5 14 9 0 16 -5 16 -11 0 -8 5 -8 15 1 8 7 15 21 15 32 0 12 4 17 12 12
7 -4 8 -3 4 4 -10 17 -36 15 -36 -3 0 -8 -5 -15 -11 -15 -6 0 -8 7 -5 16 3 8
1 24 -5 35 -7 15 -7 24 1 34 6 7 10 17 9 21 -4 24 3 24 27 1 18 -18 25 -34 21
-47 -3 -14 0 -20 11 -22 35 -3 55 3 67 19 11 14 13 15 21 1 6 -11 15 -13 29
-7 17 6 17 8 3 8 -24 1 -23 18 2 26 11 3 20 11 20 16 0 12 32 12 64 -1 23 -9
25 -12 14 -35 -10 -22 -8 -30 9 -53 24 -33 56 -39 89 -18 34 23 34 79 -1 102
-14 9 -25 20 -25 25 0 5 27 16 60 26 l60 16 0 119 0 118 -354 0 c-275 0 -355
-3 -359 -12 -3 -10 -7 -10 -18 -1 -18 15 -793 18 -784 3 3 -6 2 -10 -4 -10 -5
0 -11 5 -13 12 -3 7 -10 8 -17 4 -11 -7 -11 -10 0 -17 11 -7 11 -9 1 -9 -7 0
-15 6 -18 14 -4 11 -34 14 -137 15 l-132 1 99 -97z m686 68 c0 -14 30 -18 74
-10 33 6 42 3 57 -15 26 -30 23 -42 -13 -56 -18 -6 -40 -16 -48 -21 -43 -26
-98 -48 -125 -49 -53 -3 -59 -2 -46 14 10 11 8 15 -6 20 -16 4 -15 5 2 4 36
-1 42 2 69 29 22 21 27 35 24 60 -2 18 0 33 4 33 4 0 8 -4 8 -9z"/>
<path d="M2095 4793 c39 -37 87 -88 108 -113 26 -30 31 -34 17 -12 -12 18 -21
35 -19 37 5 4 153 -104 157 -116 2 -5 -11 -9 -29 -9 -22 0 -43 9 -62 28 l-30
27 18 -27 c17 -27 17 -28 -1 -28 -19 0 -44 11 -99 44 -28 17 -28 16 5 -13 19
-17 42 -31 50 -31 10 -1 7 -5 -7 -12 -19 -9 -32 -6 -73 15 -59 31 -59 19 0
-14 22 -13 40 -25 40 -28 0 -3 -30 -19 -65 -35 -36 -16 -65 -33 -65 -37 0 -15
21 -10 82 21 57 29 97 37 112 23 4 -4 -12 -17 -36 -28 -23 -11 -40 -23 -38
-26 3 -4 -3 -16 -13 -27 -12 -13 -15 -22 -8 -27 6 -3 11 -17 11 -31 0 -29 5
-30 33 -3 12 11 30 25 40 30 14 8 17 5 17 -20 0 -21 -6 -32 -20 -36 -22 -7
-24 -13 -11 -34 7 -11 14 -11 45 0 49 18 58 30 67 91 5 28 10 53 13 55 7 7 85
-17 91 -28 4 -5 -1 -21 -10 -35 -16 -24 -16 -25 2 -15 10 6 28 21 41 35 l23
25 -23 14 c-13 8 -32 20 -43 26 -21 13 -20 12 45 -6 8 -2 -1 5 -20 16 -19 11
-42 20 -51 21 -19 0 -69 37 -69 51 0 5 17 9 39 9 33 0 54 -12 140 -77 142
-108 205 -153 214 -153 4 0 -7 14 -25 31 -32 29 -32 30 -8 25 21 -4 16 3 -27
42 -57 51 -90 106 -99 165 -4 21 -12 37 -20 37 -9 0 -6 -16 12 -60 27 -66 27
-69 15 -88 -7 -11 -17 -9 -50 12 -23 15 -44 33 -48 41 -3 8 -11 15 -17 15 -15
0 -96 75 -96 89 0 5 6 12 13 14 13 6 -16 10 -45 8 -10 -1 -18 2 -18 7 0 6 -10
12 -23 16 -13 3 -75 42 -138 86 l-114 81 70 -68z"/>
<path d="M1900 4816 c0 -17 51 -290 56 -298 3 -4 1 -8 -4 -8 -12 0 -44 37 -71
83 -13 20 -25 37 -27 37 -6 0 33 -75 63 -123 13 -21 23 -42 21 -47 -4 -13
-115 65 -174 122 -29 28 -63 73 -77 102 -23 45 -26 48 -27 23 0 -27 44 -165
57 -176 3 -3 3 2 0 11 -3 9 -9 34 -13 55 l-6 38 58 -56 c56 -54 122 -106 244
-194 l55 -40 -22 31 c-28 40 -79 189 -92 274 -16 95 -15 97 16 69 18 -15 22
-17 11 -4 -9 11 -28 40 -42 65 -14 25 -26 41 -26 36z"/>
<path d="M4140 4745 c-7 -8 -19 -15 -27 -15 -8 0 -11 -5 -7 -11 3 -6 22 -9 40
-7 l34 4 -30 -29 c-28 -28 -29 -31 -15 -47 25 -28 115 -34 115 -8 0 6 11 23
25 40 28 33 29 37 16 57 -8 12 -11 12 -24 -1 -12 -11 -13 -18 -4 -27 15 -15
-11 -15 -46 2 -32 14 -36 31 -6 22 15 -5 19 -4 15 4 -4 6 -16 11 -26 11 -10 0
-22 5 -25 10 -9 14 -21 12 -35 -5z"/>
<path d="M1987 3836 l-48 -11 39 -37 c27 -26 44 -54 57 -95 10 -32 22 -64 28
-70 10 -14 93 -18 101 -5 2 4 -13 6 -35 4 -42 -4 -69 10 -68 37 0 10 2 11 6 4
7 -19 62 -15 111 7 48 22 52 18 20 -19 l-23 -26 27 24 c33 29 57 77 51 102 -3
10 -20 30 -39 44 -71 55 -128 65 -227 41z"/>
<path d="M3900 2416 c0 -2 56 -23 124 -46 l123 -43 41 -66 c23 -36 61 -87 85
-113 63 -69 91 -183 122 -503 8 -88 20 -203 25 -255 5 -52 6 -98 2 -101 -21
-20 -164 -59 -216 -59 l-57 0 5 53 c3 28 8 84 10 122 5 70 5 70 -10 36 -21
-47 -65 -109 -108 -153 -20 -21 -33 -38 -27 -38 5 0 12 -14 16 -30 8 -36 -10
-318 -31 -480 -7 -63 -14 -150 -14 -195 0 -72 3 -84 30 -124 41 -61 41 -119 0
-184 -16 -26 -30 -49 -30 -50 0 -1 17 -11 38 -22 20 -11 41 -26 45 -33 7 -11
12 -11 25 1 10 7 36 19 60 26 24 7 51 21 60 31 11 14 18 16 23 8 6 -9 18 -7
47 6 61 28 72 14 19 -23 -60 -41 -61 -51 -2 -17 25 15 67 38 94 51 49 25 83
55 62 55 -38 0 20 96 62 102 15 2 21 9 19 21 -2 9 2 17 8 17 8 0 8 6 0 20 -6
11 -10 43 -11 72 0 29 0 64 0 78 0 14 7 39 15 55 9 17 16 42 16 58 0 20 5 27
20 27 26 0 25 -20 0 -53 -11 -14 -16 -28 -11 -31 15 -10 0 -47 -23 -56 -17 -7
-18 -9 -3 -9 9 -1 17 -6 17 -12 0 -7 13 2 29 18 19 20 33 28 42 22 11 -6 10
-9 -5 -15 -13 -5 -14 -9 -6 -14 21 -13 0 -30 -38 -31 -37 -1 -37 -1 -8 -9 16
-5 33 -7 37 -5 9 6 21 -43 14 -55 -4 -6 -3 -10 2 -10 4 0 19 -18 32 -39 25
-40 64 -66 83 -55 7 4 8 2 4 -4 -4 -7 -2 -12 3 -12 6 0 11 4 11 9 0 5 7 11 17
13 11 2 4 12 -27 33 -39 27 -79 89 -66 102 2 3 20 -10 39 -28 74 -73 105 -95
103 -73 0 10 19 27 49 43 61 32 65 37 65 84 0 24 5 37 13 37 8 0 22 9 32 20
10 11 22 17 26 14 5 -3 9 2 9 10 0 9 5 16 11 16 5 0 7 -6 3 -13 -5 -8 -3 -8 9
2 13 10 15 23 11 52 -7 42 4 51 24 19 26 -43 32 -19 32 135 0 117 -3 155 -12
155 -8 0 -9 3 -3 8 6 4 11 19 12 34 1 24 -2 26 -18 17 -13 -6 -19 -6 -19 0 0
6 9 15 20 21 18 9 20 21 20 93 0 46 -4 76 -8 69 -6 -8 -12 0 -20 25 -13 43
-10 50 11 29 14 -14 16 10 16 251 1 221 -1 264 -12 249 -12 -16 -14 -16 -26
-2 -8 9 -22 16 -32 16 -22 0 -24 11 -7 28 10 10 10 15 -2 22 -22 14 -28 12
-40 -10 -6 -11 -17 -20 -24 -20 -8 0 -17 -7 -20 -16 -4 -9 -9 -14 -13 -10 -4
3 6 20 22 36 22 23 26 33 17 42 -8 8 -15 8 -27 -2 -15 -12 -20 -5 -16 22 0 4
-18 17 -42 29 -23 12 -114 68 -202 124 -88 56 -205 126 -260 155 -55 29 -116
62 -135 73 -65 36 -215 99 -305 128 -100 32 -95 30 -95 25z"/>
<path d="M3243 2329 c-6 -13 -15 -39 -19 -58 -9 -46 -28 -65 -51 -52 -32 16
-136 51 -141 46 -3 -2 4 -7 14 -11 100 -35 148 -67 129 -86 -19 -18 -139 48
-150 83 -7 20 -77 68 -117 79 l-28 9 20 -29 c11 -16 33 -38 47 -50 14 -11 23
-23 20 -27 -4 -3 -14 0 -24 8 -11 9 -8 2 6 -16 l23 -30 -54 -3 c-38 -2 -69 3
-103 18 -53 23 -70 20 -32 -4 13 -9 62 -21 107 -26 53 -6 90 -16 104 -27 12
-10 15 -11 9 -3 -14 15 -18 50 -5 50 4 0 13 -12 20 -27 6 -16 32 -61 57 -101
39 -64 59 -109 39 -89 -8 8 -61 -28 -92 -62 -23 -26 -23 -26 1 22 25 45 25 47
7 57 -25 13 -30 13 -30 -4 0 -7 -7 -20 -16 -27 -15 -12 -16 -10 -12 24 3 30 1
37 -13 37 -18 0 -32 -47 -24 -77 3 -10 -3 -1 -13 20 -10 20 -21 34 -25 31 -8
-8 3 -65 17 -84 5 -8 -4 -2 -22 14 -29 27 -32 28 -32 10 0 -11 8 -30 17 -43 9
-14 11 -21 4 -16 -8 4 -17 2 -22 -6 -13 -22 -11 -29 14 -39 15 -6 17 -9 5 -9
-21 -1 -12 -41 9 -41 12 0 13 -3 4 -14 -17 -20 3 -30 31 -15 22 12 22 11 6 -8
-25 -28 -24 -38 24 -135 34 -69 50 -91 78 -105 26 -14 46 -39 79 -101 24 -45
52 -84 61 -87 10 -3 23 -19 30 -35 14 -34 32 -42 67 -33 23 5 25 4 18 -13 -4
-10 -10 -30 -13 -43 -3 -13 -17 -35 -32 -50 -22 -22 -26 -33 -22 -67 l4 -42
33 22 c24 15 36 33 44 62 6 25 28 61 53 88 l43 46 60 -16 c43 -12 81 -15 133
-10 85 7 131 24 159 59 24 31 39 107 23 117 -7 4 -3 13 10 25 20 18 21 18 14
-1 -5 -13 -4 -16 4 -9 6 6 12 39 14 74 l3 63 39 4 c21 2 41 6 44 9 3 3 5 26 3
51 -1 25 3 52 10 60 25 30 3 44 -64 42 -58 -2 -67 1 -105 30 -28 22 -42 28
-45 20 -3 -7 -6 1 -6 18 -1 25 -30 84 -31 63 0 -15 -86 14 -102 34 -15 19 -18
19 -18 5 0 -15 -10 -18 -62 -19 -103 -2 -121 1 -160 28 -45 30 -45 59 -1 106
40 41 64 49 185 56 l107 6 -19 25 c-18 24 -24 25 -124 26 l-105 0 -31 38 c-16
22 -30 42 -30 47 0 5 -9 16 -19 26 -13 12 -21 35 -23 67 -3 46 -4 48 -15 25z"/>
<path d="M470 1170 c-8 -6 -27 -7 -42 -4 -20 4 -28 2 -28 -9 0 -7 -12 -19 -27
-26 -57 -26 -164 -116 -201 -170 -59 -84 -118 -190 -138 -246 -9 -27 -21 -54
-26 -59 -4 -6 -8 -42 -8 -82 l0 -72 56 -7 c45 -5 67 -16 119 -55 63 -47 65
-48 86 -31 18 15 20 20 9 37 -32 50 -165 124 -225 124 -13 0 -26 3 -29 8 -8
13 61 185 110 273 91 166 160 226 364 317 14 6 18 11 10 11 -8 0 -22 -4 -30
-9z"/>
<path d="M3475 888 c-14 -42 -19 -118 -25 -373 -5 -176 -11 -364 -15 -417 -4
-61 -3 -98 3 -98 20 0 24 54 32 440 5 217 13 417 19 444 15 67 6 70 -14 4z"/>
<path d="M515 696 c-21 -15 -14 -21 40 -31 21 -3 52 -13 67 -21 15 -8 31 -14
35 -14 3 1 12 -13 20 -31 12 -29 12 -35 -2 -48 -15 -15 -17 -14 -26 2 -6 9
-17 17 -24 17 -8 0 -15 6 -15 14 0 8 -9 18 -20 21 -11 3 -20 11 -20 16 0 5 -9
9 -20 9 -39 0 -21 -43 23 -54 31 -7 61 -56 39 -64 -6 -2 -12 -12 -12 -22 0
-19 -65 -90 -82 -90 -5 0 -25 16 -45 36 -33 34 -35 38 -29 84 4 29 2 51 -4 55
-5 3 -11 1 -11 -4 -2 -16 -4 -23 -17 -54 -9 -22 -9 -38 0 -68 8 -28 8 -43 1
-50 -17 -17 -30 -4 -45 44 -16 46 -11 72 25 141 19 38 19 38 -1 58 -21 22 -47
16 -38 -9 3 -8 -1 -24 -9 -37 -9 -13 -18 -47 -22 -75 -5 -47 -4 -51 13 -45 16
6 17 5 7 -7 -19 -19 -15 -60 7 -89 21 -26 24 -47 13 -75 -4 -13 -13 -1 -34 44
-15 33 -32 61 -37 61 -5 0 -17 -9 -27 -20 -15 -16 -16 -25 -8 -43 6 -12 16
-41 22 -65 13 -46 3 -67 -35 -74 -14 -2 -20 6 -26 41 -4 25 -12 49 -16 53 -16
16 -52 -42 -52 -83 0 -35 -3 -39 -25 -39 -29 0 -33 -15 -7 -29 15 -9 13 -12
-13 -22 -17 -6 -44 -31 -60 -55 -17 -24 -33 -44 -37 -44 -5 0 -8 -7 -8 -15 0
-14 30 -15 240 -14 194 1 240 4 240 15 0 8 9 19 20 26 27 17 25 28 -4 28 -19
0 -23 4 -19 19 3 11 13 21 24 24 14 4 18 12 15 29 -3 12 -5 33 -5 46 -1 36
-31 27 -33 -10 0 -18 -2 -39 -2 -47 -1 -16 -43 -34 -58 -25 -5 3 -7 13 -4 21
3 8 3 20 -1 26 -4 6 -14 -6 -24 -29 -10 -21 -18 -31 -18 -21 -1 9 -7 17 -13
17 -7 0 -2 10 12 21 16 14 19 19 8 15 -16 -5 -18 5 -9 42 1 1 11 -2 24 -8 21
-11 21 -10 3 4 -11 9 -16 16 -10 16 5 0 2 5 -6 10 -12 8 -9 15 20 39 38 33 50
35 96 22 36 -10 60 0 51 23 -4 11 -16 15 -37 12 -40 -5 -41 22 0 37 17 6 30
15 30 20 0 5 7 3 17 -4 15 -13 16 -11 10 13 -5 18 -2 32 9 42 19 19 41 22 26
4 -5 -7 -7 -21 -3 -31 12 -32 46 6 65 73 11 37 22 60 29 57 14 -4 22 -67 9
-67 -6 0 -8 -9 -5 -20 4 -16 -6 -33 -41 -65 -29 -29 -44 -50 -40 -60 9 -24 28
-18 68 21 50 48 59 74 61 170 1 80 2 82 49 145 l48 64 -58 -57 -59 -58 -38 35
c-65 60 -139 86 -172 61z"/>
</g>
</svg>
